<?xml version="1.0" encoding="utf-8"?>
<!-- Generator: Adobe Illustrator 16.0.3, SVG Export Plug-In . SVG Version: 6.00 Build 0)  -->
<!DOCTYPE svg PUBLIC "-//W3C//DTD SVG 1.1//EN" "http://www.w3.org/Graphics/SVG/1.1/DTD/svg11.dtd">
<svg version="1.1" xmlns="http://www.w3.org/2000/svg" xmlns:xlink="http://www.w3.org/1999/xlink" x="0px" y="0px" width="500px"
	 height="500px" viewBox="0 0 500 500" enable-background="new 0 0 500 500" xml:space="preserve">
<g id="BACKGROUND">
</g>
<g id="OBJECTS">
	<g>
		<path fill="#2595FF" d="M284.236,78.02c-0.456,2.307,0.58,4.944,9.515,9.958c0.298,0.167,0.6,0.335,0.904,0.504l0.548,6.684
			l-0.664-0.417c-0.271-0.17-0.63-0.088-0.8,0.183l-0.366,0.583c-0.171,0.271-0.089,0.63,0.183,0.801l1.836,1.152l0.554,6.748
			l-0.407-0.256c-0.271-0.17-0.63-0.088-0.801,0.183l-0.366,0.583c-0.17,0.272-0.089,0.63,0.184,0.801l1.579,0.992l0.443,5.413
			l3.84,2.41l2.801-21.254c4.83,2.533,9.579,4.939,12.91,6.607l0.356,7.032l2.554,1.604l1.791-6.768l2.151,0.488l-1.374-1.726
			l5.317-4.554l-2.555-1.604l-6.488,2.735c-2.95-2.274-7.181-5.507-11.561-8.755l17.924-11.759l-3.839-2.411l-5.068,1.953
			l-1.579-0.992c-0.271-0.17-0.63-0.088-0.801,0.183l-0.366,0.583c-0.17,0.271-0.089,0.63,0.184,0.801l0.406,0.255l-6.317,2.434
			l-1.836-1.152c-0.271-0.171-0.63-0.089-0.801,0.183l-0.365,0.583c-0.171,0.271-0.089,0.63,0.183,0.801l0.663,0.417l-6.258,2.411
			c-0.284-0.201-0.567-0.399-0.847-0.595c-8.398-5.868-11.225-5.655-13.104-4.241C284.363,77.704,284.27,77.854,284.236,78.02z"/>
		<path fill="#DB7112" d="M330.862,122.229c-0.216,6.917-2.633,14.183-7.85,20.399c-11.149,13.316-36.216,24.733-76.481,39.082
			c-42.815,15.25-88.181,30.966-90.764,62.948c-4.55-11.533-7.083-24.083-7.083-37.215c0-55.965,45.365-101.331,101.313-101.331
			c2.016,0,4,0.067,5.983,0.184c25.149,1.466,47.815,12.116,64.748,28.632C324.696,132.263,329.112,128.113,330.862,122.229z"/>
		<path fill="#FF8619" d="M229.549,319.857c-68.448-35.316-38.049-79.148,30.499-109.78
			C187.483,256.459,205.716,295.824,229.549,319.857z"/>
		<path fill="#2595FF" d="M312.813,163.262c-0.601,0.517-1.233,1.017-1.867,1.533c-39.981,33.183-94.03,45.782-121.929,77.331
			c-21.566,24.399-14.35,41.432-10.683,47.948c-21.266-18.516-20.549-48.565,12.633-69.081
			C224.149,200.494,266.998,190.228,312.813,163.262z"/>
		<path fill="#FF8619" d="M330.862,122.229c-0.216,6.917-2.633,14.183-7.85,20.399c-11.149,13.316-36.216,24.733-76.481,39.082
			c-42.815,15.25-88.181,30.966-90.764,62.948c-4.55-11.533-7.083-24.083-7.083-37.215c0-55.965,45.365-101.331,101.313-101.331
			c2.016,0,4,0.067,5.983,0.184c-45.515,0.083-89.247,43.398-84.764,86.814c12.333-37.032,103.297-31.966,149.512-58.182
			C324.696,132.263,329.112,128.113,330.862,122.229z"/>
		<path fill="#2595FF" d="M342.545,166.204c9.496-26.073,2.223-49.666-16.548-61.514c38.58,44.68-28.867,85.32-79.147,127.088
			c-26.155,21.729-30.606,57.771-3.48,71.611c8.275,4.222,17.832,5.167,26.935,3.314c46.223-9.403,81.011-50.266,81.011-99.265
			C351.315,192.75,348.174,178.801,342.545,166.204z"/>
		<path fill="#238AED" d="M342.545,166.204c-14.421,34.724-82.571,80.208-90.589,97.063c-12.339,25.944,21.489,36.595,47.848,17.021
			c-49.975-2.979,42.055-44.811,50.99-83.108"/>
		<path fill="#DB7112" d="M229.549,319.857c-59.015-46.516-24.116-77.165,30.499-109.78
			C187.483,256.459,205.716,295.824,229.549,319.857z"/>
		<path fill="#238AED" d="M310.946,164.795c-39.981,33.183-94.03,45.782-121.929,77.331c-21.566,24.399-14.35,41.432-10.683,47.948
			C132.569,222.66,264.098,202.11,310.946,164.795z"/>
	</g>
	<text transform="matrix(1 0 0 1 123.8467 374.875)"><tspan x="0" y="0" fill="#606060" font-family="'Montserrat-Medium'" font-size="54.2259">Travel</tspan><tspan x="136.863" y="0" fill="#606060" font-family="'Montserrat-Bold'" font-size="54.2259">Logo</tspan></text>
</g>
</svg>
